<!-- Astropinion / Logo -->
<!-- COLORS: red: #fc3d21 | yellow: #fcab21 | black: #000000 | white: #ffffff -->
<!-- CLASSES: ao-logo
              ao-logo__primary ao-logo__crescent
              ao-logo__secondary ao-logo__tm
              ao-logo__accent ao-logo__star -->
<svg class="ao-logo" id="ao-logo" role="img" xmlns="http://www.w3.org/2000/svg" viewBox="0 0 215.25 16.234"><title>Astropinion Logo</title><desc>Image of the Astropinion logo.</desc><g><polygon class="ao-logo__primary" points="8.137,16.235 10.644,10.897 13.154,16.236"/><path class="ao-logo__primary" d="M26.989,4.724h12.803V0.006H26.989c-3.96,0-6.21,1.342-6.21,5.128 c0,3.787,2.25,5.128,6.21,5.128h5.084c0.541,0,0.909,0.172,0.909,0.605c0,0.477-0.368,0.648-0.909,0.648H19.077L13.674,0.006H7.617 L0,16.234h5.583l5.063-10.776l5.063,10.776h5.069h0.513h10.782c3.96,0,6.211-1.342,6.211-5.128c0-3.787-2.251-5.128-6.211-5.128 h-5.084c-0.542,0-0.909-0.173-0.909-0.605C26.08,4.896,26.447,4.724,26.989,4.724z"/><path class="ao-logo__primary" d="M60.616,0.006v4.718h-6.923v11.511h-5.323V4.724h-6.924V0.006H60.616z"/><path class="ao-logo__primary" d="M80.77,6.346c0,2.986-1.147,4.761-3.224,5.626l3.613,4.263H74.82l-3.008-3.548h-4.219 v3.548H62.27V0.006h10.862C78,0.006,80.77,1.672,80.77,6.346z M67.592,4.724v3.246h5.54c1.428,0,2.315-0.455,2.315-1.624 c0-1.168-0.887-1.622-2.315-1.622H67.592z"/><path class="ao-logo__primary ao-logo__crescent" d="M94.801,2.75c6.575,0,11.927,5.22,12.148,11.74 c0.123-0.699,0.19-1.417,0.19-2.152C107.139,5.524,101.616,0,94.801,0S82.462,5.524,82.462,12.337c0,0.735,0.067,1.453,0.191,2.152 C82.874,7.969,88.226,2.75,94.801,2.75z"/><path class="ao-logo__accent ao-logo__star" d="M90.271,11.578c0,0,2.324,0.003,3.458,1.214c1.083,1.158,1.079,3.438,1.079,3.438 h0.005c0,0,0-2.279,1.078-3.438c1.133-1.215,3.458-1.214,3.458-1.214v-0.005c0,0-2.326,0.008-3.458-1.215 c-1.078-1.164-1.078-3.438-1.078-3.438h-0.005c0,0,0.005,2.273-1.079,3.438c-1.133,1.217-3.458,1.215-3.458,1.215"/><path class="ao-logo__primary" d="M114.117,12.677v3.558h-5.322V0.006h11.445c4.868,0,7.638,1.667,7.638,6.34V6.337 c0,4.673-2.77,6.339-7.638,6.339H114.117z M114.117,4.724V7.96h6.123c1.428,0,2.314-0.455,2.314-1.623v0.008 c0-1.168-0.887-1.622-2.314-1.622H114.117z"/><path class="ao-logo__primary" d="M135.14,16.234h-5.332V0.006h5.332V16.234z"/><path class="ao-logo__primary" d="M150.912,8.77V0.006h5.324v16.229h-5.324l-7.441-8.763v8.763h-5.324V0.006h5.324 L150.912,8.77z"/><path class="ao-logo__primary" d="M164.573,16.234h-5.332V0.006h5.332V16.234z"/><path class="ao-logo__primary" d="M178.771,0.006c4.869,0,7.639,1.667,7.639,6.34v3.548c0,4.674-2.77,6.341-7.639,6.341 h-4.629c-4.869,0-7.639-1.667-7.639-6.341V6.346c0-4.673,2.77-6.34,7.639-6.34H178.771z M178.771,11.517 c1.43,0,2.316-0.453,2.316-1.623V6.346c0-1.168-0.887-1.622-2.316-1.622h-4.629c-1.428,0-2.316,0.454-2.316,1.622v3.548 c0,1.17,0.889,1.623,2.316,1.623H178.771z"/><path class="ao-logo__primary" d="M201.51,8.77V0.006h5.323v16.229h-5.323l-7.442-8.763v8.763h-5.324V0.006h5.324 L201.51,8.77z"/><path class="ao-logo__secondary ao-logo__tm" d="M211.71,0.071v0.725h-1.063v1.77h-0.818v-1.77h-1.065V0.071H211.71z"/><path class="ao-logo__secondary ao-logo__tm" d="M214.431,0.071h0.818v2.495h-0.818V1.219l-0.656,0.771l-0.656-0.771v1.348H212.3V0.071 h0.818l0.656,0.771L214.431,0.071z"/></g></svg>
